<svg width="80" height="80" fill="none" xmlns="http://www.w3.org/2000/svg"><g clip-path="url(#clip0)"><rect x="-21.334" y="13.333" width="62" height="92.667" rx="7" fill="#1770D1" fill-opacity=".78"/><path d="M73.226 26.152a5.118 5.118 0 00-5.912 3.804l-2.953 11a4.988 4.988 0 00-5.25-.157l-8.547 5.014A11.293 11.293 0 0045 55.514V65h-2.5a1.25 1.25 0 00-1.25 1.25v10a1.25 1.25 0 001.25 1.25H65a1.25 1.25 0 001.25-1.25v-10A1.25 1.25 0 0065 65h-2.5v-1.45a3.75 3.75 0 011.309-2.847l5.829-5a6.231 6.231 0 001.97-3.126l5.423-20.24c.114-.424.17-.861.169-1.3a5.021 5.021 0 00-3.974-4.884zM63.75 75h-20v-7.5h20V75zm10.868-43.311L69.193 51.93a3.73 3.73 0 01-1.182 1.875l-5.828 5A6.25 6.25 0 0060 63.55V65H47.5v-9.485a8.783 8.783 0 014.322-7.547l8.538-5.01c.38-.218.811-.333 1.25-.333A2.467 2.467 0 0163.844 44a2.625 2.625 0 01-1.139 3.389l-7 4.033a1.252 1.252 0 001.25 2.168l7-4.034a5.104 5.104 0 002.336-6.133L69.73 30.61a2.653 2.653 0 012.984-2 2.508 2.508 0 011.986 2.428c.002.22-.026.438-.082.65zM37.5 65H35v-9.485a11.294 11.294 0 00-5.558-9.704l-8.557-5.02a4.993 4.993 0 00-5.25.163l-2.952-11a5.125 5.125 0 00-5.915-3.804 5.008 5.008 0 00-3.805 6.184l5.425 20.242a6.22 6.22 0 001.97 3.125l5.828 5A3.75 3.75 0 0117.5 63.55V65H15a1.25 1.25 0 00-1.25 1.25v10A1.25 1.25 0 0015 77.5h22.5a1.25 1.25 0 001.25-1.25v-10A1.25 1.25 0 0037.5 65zm-19.683-6.196l-5.829-5a3.722 3.722 0 01-1.18-1.875L5.381 31.687a2.509 2.509 0 011.906-3.089 2.656 2.656 0 012.984 2L13.71 43.41a5.104 5.104 0 002.336 6.135l7 4.034a1.251 1.251 0 001.25-2.168l-7-4.034a2.625 2.625 0 01-1.14-3.388 2.47 2.47 0 012.23-1.364c.436 0 .864.112 1.243.328l8.547 5.016a8.778 8.778 0 014.323 7.546V65H20v-1.45a6.251 6.251 0 00-2.183-4.746zM36.25 75h-20v-7.5h20V75zM60 19.5V3.75a1.25 1.25 0 00-1.875-1.085l-1.781 1.018a13.723 13.723 0 01-12.969.36l-2.826-1.412a1.25 1.25 0 00-1.118 0L36.625 4.04a13.719 13.719 0 01-12.974-.358l-1.776-1.016A1.25 1.25 0 0020 3.75V19.5a31.195 31.195 0 0016.544 27.574l2.867 1.529a1.25 1.25 0 001.178 0l2.867-1.53A31.192 31.192 0 0060 19.5zM40 46.084l-2.279-1.217A28.699 28.699 0 0122.5 19.5V5.904a16.215 16.215 0 0015.24.375l2.25-1.125 2.267 1.132A16.214 16.214 0 0057.5 5.904V19.5a28.696 28.696 0 01-15.221 25.367L40 46.084z" fill="#fff"/><path d="M55 11.293a1.25 1.25 0 00-1.514-1.223c-4.171.89-8.52.342-12.341-1.554l-.59-.294a1.25 1.25 0 00-1.125 0l-.578.29a18.896 18.896 0 01-12.344 1.557A1.25 1.25 0 0025 11.29v8.21a26.2 26.2 0 0013.898 23.161l.513.275a1.249 1.249 0 001.176 0l.515-.275A26.2 26.2 0 0055 19.5v-8.207zM52.5 19.5A23.706 23.706 0 0140 40.416 23.706 23.706 0 0127.5 19.5v-6.716a21.43 21.43 0 0012.477-2.034l.023-.012.03.016a21.4 21.4 0 0012.47 2.031V19.5z" fill="#fff"/><path d="M47.071 17.411L37.5 26.983l-3.903-3.903a1.25 1.25 0 00-1.767 1.768l4.786 4.786a1.25 1.25 0 001.768 0l10.455-10.455a1.25 1.25 0 10-1.768-1.768z" fill="#fff"/></g><defs><clipPath id="clip0"><path fill="#fff" d="M0 0h80v80H0z"/></clipPath></defs></svg>