<svg width="19" height="11" viewBox="0 0 19 11" fill="none" xmlns="http://www.w3.org/2000/svg">
<path fill-rule="evenodd" clip-rule="evenodd" d="M6.14694 0.259306C6.07437 0.186551 5.98816 0.128828 5.89325 0.0894427C5.79833 0.0500576 5.69658 0.0297852 5.59382 0.0297852C5.49106 0.0297852 5.38931 0.0500576 5.29439 0.0894427C5.19948 0.128828 5.11326 0.186551 5.04069 0.259306L0.353193 4.94681C0.280438 5.01938 0.222716 5.10559 0.183331 5.2005C0.143946 5.29542 0.123672 5.39717 0.123672 5.49993C0.123672 5.60269 0.143946 5.70444 0.183331 5.79936C0.222716 5.89427 0.280438 5.98048 0.353193 6.05306L5.04069 10.7406C5.18739 10.8873 5.38636 10.9697 5.59382 10.9697C5.80128 10.9697 6.00025 10.8873 6.14694 10.7406C6.29364 10.5939 6.37606 10.3949 6.37606 10.1874C6.37606 9.97997 6.29364 9.781 6.14694 9.63431L2.01101 5.49993L6.14694 1.36556C6.2197 1.29299 6.27742 1.20677 6.31681 1.11186C6.35619 1.01694 6.37646 0.915193 6.37646 0.812431C6.37646 0.70967 6.35619 0.607918 6.31681 0.513004C6.27742 0.418089 6.2197 0.331878 6.14694 0.259306Z" fill="#1770D1"/>
<path fill-rule="evenodd" clip-rule="evenodd" d="M18.875 5.5C18.875 5.2928 18.7927 5.09409 18.6462 4.94757C18.4997 4.80106 18.301 4.71875 18.0938 4.71875H1.6875C1.4803 4.71875 1.28159 4.80106 1.13507 4.94757C0.98856 5.09409 0.90625 5.2928 0.90625 5.5C0.90625 5.7072 0.98856 5.90592 1.13507 6.05243C1.28159 6.19894 1.4803 6.28125 1.6875 6.28125H18.0938C18.301 6.28125 18.4997 6.19894 18.6462 6.05243C18.7927 5.90592 18.875 5.7072 18.875 5.5Z" fill="#1770D1"/>
</svg>
