<svg width="100" height="100" fill="none" xmlns="http://www.w3.org/2000/svg"><rect y="20" width="36" height="80" rx="7" fill="#1770D1" fill-opacity=".7"/><path d="M49.336 82.13a7.242 7.242 0 00.982-3.645c0-4.02-3.27-7.289-7.288-7.289H17.814c-4.018 0-7.288 3.27-7.288 7.289 0 1.327.359 2.572.982 3.646C4.962 83.404.004 89.178.004 96.09v1.956c0 1.079.875 1.953 1.953 1.953h37.254c1.079 0-1.953-.874-1.953-1.953 0-1.079 3.032-1.953 1.953-1.953h-35.3v-.002c0-5.69 4.628-10.32 10.318-10.32h32.386c5.69 0 10.319 4.63 10.319 10.32v.002H39.21a1.953 1.953 0 000 3.906h19.676a1.953 1.953 0 001.953-1.953V96.09c0-6.913-4.958-12.687-11.504-13.96zm-31.522-.263a3.386 3.386 0 01-3.382-3.382 3.386 3.386 0 013.382-3.382H43.03a3.386 3.386 0 013.381 3.382 3.386 3.386 0 01-3.381 3.382H17.814zm75.37-20.327c9.083-9.083 9.083-23.862 0-32.945-9.082-9.083-23.861-9.083-32.944 0l-5.551 5.55-5.6-5.6 3.41-3.41c.657.198 1.346.3 2.051.3a7.051 7.051 0 005.02-2.078 7.109 7.109 0 000-10.038L48.325 2.075a7.106 7.106 0 00-10.038 0 7.104 7.104 0 00-1.775 7.067L18.237 27.417a7.103 7.103 0 00-7.066 1.776 7.106 7.106 0 000 10.037l11.243 11.244a7.05 7.05 0 005.02 2.079 7.052 7.052 0 005.018-2.08 7.052 7.052 0 002.079-5.018c0-.705-.103-1.394-.3-2.051l3.41-3.41L50.33 52.68a6.047 6.047 0 00-.644 2.725 6.03 6.03 0 001.779 4.295 6.035 6.035 0 004.295 1.78l.066-.002a6.054 6.054 0 005.924 5.539 6.028 6.028 0 001.768 3.942 6.03 6.03 0 004.055 1.774 6.03 6.03 0 001.773 4.055 6.035 6.035 0 004.295 1.779c.755 0 1.489-.139 2.174-.401l1.34 1.34a8.07 8.07 0 005.724 2.367 8.07 8.07 0 005.724-2.367c3.156-3.156 3.156-8.292 0-11.448l-.969-.968 5.551-5.551zM32.063 40.047L21.597 29.582l17.08-17.08 10.465 10.466-17.079 17.08zm8.987-35.21a3.181 3.181 0 012.257-.932c.817 0 1.634.31 2.256.933L56.807 16.08a3.195 3.195 0 010 4.513 3.195 3.195 0 01-4.512.001L41.049 9.35a3.194 3.194 0 01.001-4.512zM29.69 47.713a3.17 3.17 0 01-2.257.934 3.17 3.17 0 01-2.256-.934L13.933 36.468a3.195 3.195 0 010-4.513 3.181 3.181 0 012.257-.933c.816 0 1.633.31 2.255.932L29.691 43.2a3.17 3.17 0 01.933 2.255 3.17 3.17 0 01-.934 2.257zm16.637-16.404l12.47 12.47-5.924 5.923-12.47-12.47 5.924-5.923zm25.78 42.718a2.153 2.153 0 01-.635-1.533c0-.578.226-1.122.635-1.532l10.82-10.82a1.954 1.954 0 00-2.763-2.762L69.344 68.2a2.15 2.15 0 01-1.532.634 2.15 2.15 0 01-1.533-.635 2.153 2.153 0 01-.635-1.533c0-.579.225-1.123.635-1.533l10.819-10.819a1.953 1.953 0 00-2.763-2.762l-10.93 10.93a2.17 2.17 0 01-3.066 0 2.17 2.17 0 010-3.066l10.93-10.93a1.947 1.947 0 00.43-2.116 1.954 1.954 0 00-3.192-.646l-10.93 10.93-.285.285c-.41.41-.954.635-1.534.635a2.149 2.149 0 01-1.532-.635 2.153 2.153 0 01-.635-1.532c0-.58.225-1.124.635-1.533l.027-.028.002-.002L69.2 38.9a1.953 1.953 0 00-2.763-2.762l-4.816 4.816-4.108-4.108 5.488-5.488c7.56-7.56 19.861-7.56 27.42 0 7.56 7.56 7.56 19.86 0 27.42L75.174 74.026c-.41.41-.954.635-1.533.635-.58 0-1.123-.225-1.533-.635zm13.733-3.204a4.193 4.193 0 010 5.923 4.193 4.193 0 01-5.923 0l-.969-.969 5.923-5.923.969.969z" fill="#000"/></svg>