<svg width="100" height="100" fill="none" xmlns="http://www.w3.org/2000/svg"><rect x="20" y="39" width="30" height="58" rx="7" fill="#1770D1" fill-opacity=".7"/><path d="M75.977 15.469h-5.254V3.125c0-.645-.528-1.172-1.172-1.172-.117 0-.235.02-.332.04l-45.43 13.476a4.52 4.52 0 00-4.277 4.511v73.555c0 2.5 2.031 4.512 4.511 4.512h51.954c2.5 0 4.511-2.031 4.511-4.512V19.981c0-2.5-2.031-4.512-4.511-4.512zM68.379 4.688v10.761H32.05L68.379 4.688zm9.765 88.847a2.175 2.175 0 01-2.167 2.168H24.023a2.175 2.175 0 01-2.168-2.168V19.981c0-.782.41-1.485 1.075-1.876l.02.06 1.19-.352h51.837c1.191 0 2.167.976 2.167 2.168v73.554z" fill="#000"/><path d="M66.894 73.77H33.105c-.644 0-1.171.527-1.171 1.171 0 .645.527 1.172 1.171 1.172h33.79c.644 0 1.171-.527 1.171-1.172 0-.644-.527-1.172-1.172-1.172zm-9.179 7.87h-15.43c-.644 0-1.172.528-1.172 1.172 0 .645.528 1.172 1.172 1.172h15.43c.644 0 1.172-.527 1.172-1.171 0-.645-.528-1.172-1.172-1.172zM50 30c-9.727 0-17.637 7.89-17.637 17.637 0 9.746 7.89 17.636 17.637 17.636 9.746 0 17.637-7.89 17.637-17.636C67.617 37.89 59.727 30 50 30zm-5.352 3.32a17.204 17.204 0 00-3.418 5.157 15.033 15.033 0 01-2.011-1.68 15.212 15.212 0 015.43-3.477zm-6.953 5.254c.84.801 1.739 1.543 2.715 2.168a23.674 23.674 0 00-.937 5.723h-4.707a15.163 15.163 0 012.93-7.89zm-2.93 10.215h4.708c.078 1.934.39 3.867.937 5.723a16.957 16.957 0 00-2.715 2.168 15.226 15.226 0 01-2.93-7.89zm4.473 9.668a15.04 15.04 0 012.012-1.68 17.204 17.204 0 003.418 5.157 15.138 15.138 0 01-5.43-3.477zm9.59 3.867c-2.46-1.523-4.355-3.867-5.547-6.758a14.947 14.947 0 015.547-1.504v8.262zm0-10.605a17.612 17.612 0 00-6.309 1.62 22.3 22.3 0 01-.703-4.55h7.012v2.93zm0-5.274h-7.012c.078-1.543.313-3.066.703-4.55a17.313 17.313 0 006.31 1.62v2.93zm0-5.273a15.224 15.224 0 01-5.547-1.504c1.211-2.89 3.106-5.215 5.547-6.738v8.242zm11.953-4.375a13.696 13.696 0 01-2.011 1.68 17.294 17.294 0 00-3.418-5.176 15.814 15.814 0 015.43 3.496zm-9.61-3.867c2.462 1.543 4.356 3.867 5.567 6.758a14.944 14.944 0 01-5.566 1.503V32.93zm0 10.605a17.414 17.414 0 006.329-1.62c.39 1.483.625 3.007.703 4.53h-7.031v-2.91zm0 5.254h7.013c-.078 1.523-.293 3.047-.703 4.531a17.413 17.413 0 00-6.329-1.62v-2.91h.02zm0 13.535v-8.261c1.934.136 3.829.644 5.567 1.503-1.21 2.891-3.105 5.235-5.566 6.758zm4.18-.39a17.294 17.294 0 003.419-5.176 16.663 16.663 0 012.011 1.68 15.263 15.263 0 01-5.43 3.496zm6.954-5.254a16.132 16.132 0 00-2.715-2.168c.547-1.856.86-3.77.937-5.703h4.707a15.224 15.224 0 01-2.93 7.87zm-1.778-10.235a23.518 23.518 0 00-.937-5.703c.976-.625 1.875-1.367 2.715-2.168a15.16 15.16 0 012.93 7.871h-4.708z" fill="#000"/></svg>