<svg width="80" height="80" fill="none" xmlns="http://www.w3.org/2000/svg"><g clip-path="url(#clip0)"><rect x="-19.542" y="12.214" width="56.794" height="84.885" rx="7" fill="#1770D1" fill-opacity=".78"/><path d="M61.838 38.453v-1.696h1.087a3.689 3.689 0 003.685-3.684 3.689 3.689 0 00-3.685-3.686H55.14c-.79 0-1.523.251-2.124.677V3.806A3.81 3.81 0 0049.21 0H3.964A3.81 3.81 0 00.156 3.806v72.388A3.81 3.81 0 003.964 80h45.245c1.136 0 2.158-.5 2.857-1.292 13.657 4.85 27.79-5.371 27.79-19.609 0-10.577-7.83-19.255-18.018-20.646zm-6.698-6.699h7.785a1.32 1.32 0 010 2.636H55.14a1.32 1.32 0 01-1.317-1.317 1.32 1.32 0 011.317-1.319zm4.331 5.003v1.51a21.017 21.017 0 00-.877 0v-1.51h.877zm-6.455-.676c.6.425 1.333.676 2.124.676h1.087v1.695a20.651 20.651 0 00-3.21.693V36.08zM73.35 70.734c-9.721 11.948-28.872 7.357-32.297-7.482-.045-.197-.16-1-.277-2.012-.198-2.401-.645-5.527-1.085-5.426-.636.148-1.011 7.27-.864 7.907 1.422 6.157 5.381 11.158 10.683 13.88-.226.049 2.354.032-45.545.032a1.44 1.44 0 01-1.44-1.44V3.807c0-.794.644-1.44 1.44-1.44H49.21c.795 0 1.44.646 1.44 1.44v36.211c-7.171 3.154-12.092 10.35-12.2 18.822-.007.653.278 6.578.93 6.587.688 0 1.191-5.959 1.198-6.587.143-11.175 10.148-19.701 21.261-17.995 14.096 2.181 20.494 18.847 11.511 29.89z" fill="#fff"/><path d="M72.745 48.923c-5.618-7.578-16.297-9.165-23.876-3.548-7.578 5.617-9.166 16.297-3.548 23.876 5.608 7.564 16.319 9.15 23.876 3.547 7.56-5.604 9.152-16.314 3.548-23.875zm-4.957 21.974c-6.516 4.83-15.74 3.452-20.565-3.056-4.839-6.527-3.473-15.725 3.055-20.564 6.529-4.84 15.726-3.473 20.565 3.056 4.827 6.511 3.456 15.737-3.055 20.564z" fill="#fff"/><path d="M59.033 50.156c.654 0 1.183-.53 1.183-1.184v-2.574a1.183 1.183 0 10-2.366 0v2.574c0 .654.529 1.184 1.183 1.184zm6.936-3.082a1.184 1.184 0 00-1.617.433l-1.287 2.229a1.185 1.185 0 001.024 1.775c.41 0 .807-.212 1.026-.592l1.287-2.229a1.183 1.183 0 00-.433-1.616zm2.415 7.98l2.229-1.286a1.183 1.183 0 00-1.184-2.05L67.2 53.005a1.183 1.183 0 101.184 2.05zm3.337 2.849h-2.574a1.183 1.183 0 100 2.367h2.574a1.183 1.183 0 100-2.367zm-1.108 6.503l-2.23-1.287a1.184 1.184 0 10-1.183 2.05l2.23 1.287a1.183 1.183 0 001.183-2.05zm-5.498 2.849a1.183 1.183 0 10-2.05 1.183l1.287 2.228a1.184 1.184 0 102.05-1.183l-1.287-2.228zm-6.082.763c-.654 0-1.183.53-1.183 1.183v2.574a1.183 1.183 0 102.366 0V69.2c0-.654-.53-1.183-1.183-1.183zm-4.466-1.197a1.183 1.183 0 00-1.617.433l-1.286 2.229a1.183 1.183 0 102.05 1.183l1.287-2.228a1.183 1.183 0 00-.434-1.617zm-4.885-3.701l-2.23 1.286c-1.047.604-.61 2.208.593 2.208.421 0 .425-.063 2.82-1.445a1.183 1.183 0 00-1.183-2.05zm.42-4.033c0-.654-.53-1.184-1.183-1.184h-2.574a1.183 1.183 0 100 2.367h2.574c.653 0 1.183-.53 1.183-1.183zm-2.649-5.319c2.423 1.399 2.405 1.445 2.82 1.445 1.205 0 1.639-1.604.593-2.208l-2.23-1.287a1.183 1.183 0 10-1.183 2.05zm6.261-6.261a1.184 1.184 0 00-2.05 1.183l1.286 2.23A1.184 1.184 0 0055 49.735l-1.286-2.23zm9.489 7.519a1.183 1.183 0 10-1.992-1.277l-1.276 1.99a3.463 3.463 0 00-4.333 2.838c-.455 3.062 3.03 5.123 5.497 3.296a3.46 3.46 0 00.774-4.771l1.33-2.076zm-3.514 4.945c-.789.586-1.89-.076-1.746-1.046a1.098 1.098 0 011.078-.941c1.085 0 1.514 1.361.669 1.987zM8.566 10.29h36.04a1.183 1.183 0 100-2.366H8.566a1.183 1.183 0 100 2.366zm15.464 3.545a1.183 1.183 0 100 2.367h10.73a1.183 1.183 0 100-2.367H24.03zM8.566 16.202h10.73a1.183 1.183 0 000-2.367H8.566a1.183 1.183 0 100 2.367zm27.614 10.23H8.566a1.183 1.183 0 100 2.367H36.18a1.184 1.184 0 000-2.367zm8.426 0h-3.693a1.183 1.183 0 100 2.367h3.693a1.183 1.183 0 100-2.367zM8.566 34.71h10.272a1.183 1.183 0 100-2.367H8.566a1.183 1.183 0 100 2.367zm25.796 10.23H8.566a1.183 1.183 0 100 2.368h25.796a1.183 1.183 0 100-2.367zM8.566 53.219h9.467a1.183 1.183 0 100-2.367H8.566a1.183 1.183 0 100 2.367zm23.669-2.367h-9.468a1.183 1.183 0 100 2.367h9.468a1.183 1.183 0 000-2.367zm-5.546 7.57L13.996 69.973l-4.282-6.367a1.184 1.184 0 00-1.964 1.32l4.335 6.447a2.285 2.285 0 003.434.415l12.763-11.615a1.184 1.184 0 10-1.594-1.75z" fill="#fff"/></g><defs><clipPath id="clip0"><path fill="#fff" d="M0 0h80v80H0z"/></clipPath></defs></svg>