<svg width="80" height="80" fill="none" xmlns="http://www.w3.org/2000/svg"><g clip-path="url(#clip0)"><rect x="-23.063" y="13.694" width="67.027" height="100.18" rx="7" fill="#1770D1" fill-opacity=".78"/><path d="M.614 60.636l18.75 18.75c.61.61 1.6.61 2.21 0l10.312-10.312c.61-.61.61-1.6 0-2.21l-.458-.458h22.524a7.795 7.795 0 005.321-2.093L78.23 46.548a6.068 6.068 0 001.495-6.66 6.014 6.014 0 00-3.727-3.494 6.014 6.014 0 00-5.07.618l-4.209 2.762c-.029-8.47-5.148-17.502-12.194-21.568a4.698 4.698 0 00-2.07-7.54c-.078-.026-.155-.049-.232-.073l4.023-7.225a1.56 1.56 0 00-.93-2.26 31.893 31.893 0 00-8.909-1.264c-3.027 0-6.025.425-8.909 1.263a1.564 1.564 0 00-.929 2.26l4.022 7.226-.234.073a4.698 4.698 0 00-2.987 5.92c.202.61.52 1.156.924 1.618-7.152 4.127-12.2 13.252-12.2 21.64 0 .229.006.454.014.678a19.202 19.202 0 00-7.589 4.07l-4.748 4.156-.634-.634c-.61-.61-1.6-.61-2.21 0L.615 58.427c-.61.61-.61 1.599 0 2.21zM40.286 3.622a28.843 28.843 0 016.12-.653c2.068 0 4.118.219 6.12.653l-3.481 6.255a19.05 19.05 0 00-5.277 0l-3.482-6.255zm1.045 10.013a16.169 16.169 0 0110.146-.001c.82.27 1.267 1.157.998 1.974a1.553 1.553 0 01-1.389 1.072 15.285 15.285 0 00-9.36-.003h-.001a1.556 1.556 0 01-1.387-1.068 1.566 1.566 0 01.993-1.974zm.864 6.18c2.71-.976 5.517-1 8.233-.066 7.26 2.497 13.166 11.51 13.166 20.095 0 .727-.046 1.42-.136 2.069l-7.51 4.927a6.213 6.213 0 00-4.854-2.309h-3.125v-1.83a4.695 4.695 0 003.125-4.42 4.693 4.693 0 00-4.688-4.687c-.86 0-1.562-.7-1.562-1.563 0-.861.701-1.562 1.562-1.562.554 0 1.138.282 1.69.816a1.563 1.563 0 002.173-2.245c-.793-.768-1.586-1.202-2.3-1.439v-1.82a1.562 1.562 0 10-3.125 0v1.831a4.696 4.696 0 00-3.125 4.42 4.693 4.693 0 004.687 4.687 1.564 1.564 0 010 3.125c-.667 0-1.388-.42-2.029-1.183a1.563 1.563 0 00-2.392 2.012c.836.993 1.818 1.685 2.859 2.035v1.823h-.52c-.768 0-1.113-.5-1.654-.85a19.321 19.321 0 00-11.515-3.837c-.645 0-1.292.033-1.935.099l-.001-.1c0-8.463 5.821-17.447 12.977-20.028zM20.577 46.944a16.077 16.077 0 0110.579-3.975 16.17 16.17 0 019.64 3.212c.398.233 1.507 1.475 3.528 1.475h6.77a3.12 3.12 0 013.126 3.125 3.129 3.129 0 01-3.125 3.125H40.156a1.562 1.562 0 100 3.125h10.938a6.257 6.257 0 006.158-7.31l15.344-10.066a2.901 2.901 0 012.43-.29 2.9 2.9 0 011.797 1.683 2.889 2.889 0 01-.726 3.215L57.142 62.028a4.675 4.675 0 01-3.19 1.253H28.303L15.984 50.962l4.592-4.018zm-8.545 4.484l16.54 16.54-8.102 8.104-16.54-16.54 8.102-8.104z" fill="#fff"/></g><defs><clipPath id="clip0"><path fill="#fff" d="M0 0h80v80H0z"/></clipPath></defs></svg>