<svg width="19" height="11" viewBox="0 0 19 11" fill="none" xmlns="http://www.w3.org/2000/svg">
<path fill-rule="evenodd" clip-rule="evenodd" d="M12.8531 0.259306C12.9256 0.186551 13.0118 0.128828 13.1068 0.0894427C13.2017 0.0500576 13.3034 0.0297852 13.4062 0.0297852C13.5089 0.0297852 13.6107 0.0500576 13.7056 0.0894427C13.8005 0.128828 13.8867 0.186551 13.9593 0.259306L18.6468 4.94681C18.7196 5.01938 18.7773 5.10559 18.8167 5.2005C18.8561 5.29542 18.8763 5.39717 18.8763 5.49993C18.8763 5.60269 18.8561 5.70444 18.8167 5.79936C18.7773 5.89427 18.7196 5.98048 18.6468 6.05306L13.9593 10.7406C13.8126 10.8873 13.6136 10.9697 13.4062 10.9697C13.1987 10.9697 12.9998 10.8873 12.8531 10.7406C12.7064 10.5939 12.6239 10.3949 12.6239 10.1874C12.6239 9.97997 12.7064 9.781 12.8531 9.63431L16.989 5.49993L12.8531 1.36556C12.7803 1.29299 12.7226 1.20677 12.6832 1.11186C12.6438 1.01694 12.6235 0.915193 12.6235 0.812431C12.6235 0.70967 12.6438 0.607918 12.6832 0.513004C12.7226 0.418089 12.7803 0.331878 12.8531 0.259306Z" fill="#1770D1"/>
<path fill-rule="evenodd" clip-rule="evenodd" d="M0.125 5.5C0.125 5.2928 0.20731 5.09409 0.353823 4.94757C0.500336 4.80106 0.69905 4.71875 0.90625 4.71875H17.3125C17.5197 4.71875 17.7184 4.80106 17.8649 4.94757C18.0114 5.09409 18.0938 5.2928 18.0938 5.5C18.0938 5.7072 18.0114 5.90592 17.8649 6.05243C17.7184 6.19894 17.5197 6.28125 17.3125 6.28125H0.90625C0.69905 6.28125 0.500336 6.19894 0.353823 6.05243C0.20731 5.90592 0.125 5.7072 0.125 5.5Z" fill="#1770D1"/>
</svg>
