<svg width="163" height="56" fill="none" xmlns="http://www.w3.org/2000/svg"><g clip-path="url(#clip0)"><path d="M75.465 38.534c.65 0 1.2-.189 1.649-.566.456-.383.683-.865.683-1.444v-.787l-2.272.141c-.55.04-.975.179-1.276.414a1.131 1.131 0 00-.443.93c0 .403.15.723.453.958.301.236.703.354 1.206.354zm-.965 2.13c-1.039 0-1.9-.306-2.584-.919-.684-.612-1.025-1.4-1.025-2.362 0-.983.361-1.754 1.085-2.312.724-.559 1.76-.879 3.107-.96l2.714-.161v-.717c0-.498-.164-.888-.492-1.171-.322-.283-.761-.424-1.317-.424-.537 0-.975.121-1.317.363a1.49 1.49 0 00-.614.98h-2.684c.054-1.064.506-1.919 1.357-2.565.852-.652 1.98-.979 3.388-.979 1.381 0 2.487.33 3.318.99.831.66 1.247 1.534 1.247 2.624v7.441h-2.835v-1.655h-.06c-.296.565-.745 1.012-1.348 1.342a4.047 4.047 0 01-1.94.485zm8.867-.172V31.89h-1.468v-2.17h1.468v-.818c0-1.077.275-1.864.824-2.363.557-.498 1.465-.747 2.725-.747a7.47 7.47 0 011.498.132v1.948c-.215-.04-.48-.06-.794-.06-.925 0-1.388.397-1.388 1.19v.718h2.142v2.17h-2.071v8.602h-2.936zm11.089-8.874c-.637 0-1.17.219-1.599.656-.422.438-.66.996-.713 1.676h4.574c-.034-.693-.258-1.255-.674-1.686-.409-.43-.938-.646-1.588-.646zm2.302 5.563h2.695c-.161 1.063-.69 1.921-1.589 2.574-.891.646-2 .97-3.328.97-1.655 0-2.955-.499-3.9-1.495-.939-.996-1.408-2.362-1.408-4.099 0-1.73.47-3.11 1.408-4.14.938-1.036 2.201-1.554 3.79-1.554 1.561 0 2.805.491 3.73 1.474.924.983 1.387 2.299 1.387 3.948v.898h-7.43v.182c0 .774.225 1.403.674 1.888.456.478 1.056.717 1.8.717.536 0 .998-.121 1.387-.364.389-.249.65-.582.784-1z" fill="#fff"/><path d="M107.572 32.82l6.484 7.672h-3.79l-5.469-6.4h-.08v6.4h-3.036V25.924h3.036v6.168h.08l5.359-6.168h3.428l-6.012 6.895zm7.982-6.896h5.902c1.494 0 2.704.457 3.629 1.373.932.915 1.398 2.12 1.398 3.614 0 1.488-.48 2.692-1.438 3.614-.959.916-2.205 1.374-3.74 1.374h-2.714v4.593h-3.037V25.924zm3.037 2.413v5.179h2.05c.872 0 1.549-.226 2.031-.677.483-.45.724-1.09.724-1.918 0-.828-.241-1.464-.724-1.908-.476-.451-1.149-.677-2.02-.677h-2.061zm9.993 12.155V25.924h3.036v4.886h2.815c1.535 0 2.781.448 3.74 1.343.958.888 1.437 2.053 1.437 3.493 0 1.447-.465 2.618-1.397 3.514-.925.888-2.135 1.332-3.629 1.332h-6.002zm3.036-2.433h2.161c.872 0 1.542-.205 2.011-.616.476-.417.714-1.016.714-1.797 0-.78-.238-1.38-.714-1.797-.476-.424-1.149-.636-2.021-.636h-2.151v4.846zm12.617 2.433h-3.036V25.924h3.036v14.568zm17.986 0h-2.705V30.66h-.08l-3.941 9.692h-1.91l-3.941-9.692h-.081v9.833h-2.704V25.924h3.519l4.122 10.328h.08l4.122-10.328h3.519v14.568z" fill="#1770D1"/><g filter="url(#filter0_d)"><path fill-rule="evenodd" clip-rule="evenodd" d="M49.688 24.642c-2.511 10.905-8.692 18.61-18.375 22.91-9.682-4.3-15.863-12.005-18.374-22.91-1.594-6.921-1.125-13.03-.924-14.881 9.971-1.04 17.36-6.486 19.299-8.05 1.939 1.564 9.327 7.01 19.297 8.05.202 1.851.671 7.96-.923 14.881zM52.01 8.964a.744.744 0 00-.671-.629C40.108 7.375 31.886.256 31.804.185a.744.744 0 00-.981 0c-.082.071-8.304 7.19-19.535 8.15a.743.743 0 00-.671.629c-.047.299-1.095 7.421.862 15.963 1.816 7.925 6.678 18.543 19.539 24.12a.74.74 0 00.591 0c12.86-5.577 17.723-16.195 19.539-24.12 1.957-8.542.908-15.664.862-15.963z" fill="#E9EEF2"/></g><path fill-rule="evenodd" clip-rule="evenodd" d="M20.532.772c-.056.028.95 1.566.49 2.05-.079.079-.079 1.46 0 1.538.439.463.701.855.92 1.09l.617.663c.178.192.546.17.894.292.616.22-.98.811-.98 2.05 0 .449-3.956.584-5.346 2.05-3.198 3.368-3.212.513-4.375.513-.021 0 .582 1.225 0 1.531-7.686 4.052-5.162 4.415-5.835 5.127-.241.25-11.395 4.366-4.865 6.658 3.581 1.254 3.73-4.785 11.182 3.069 2.241 2.357 3.73-1.71 7.786 2.563.255.27.369 2.834.482 3.069 1.56 3.29-2.801 5.24-.482 7.683.673.712-1.858 2.229-.213 2.514.184.035.787-.15.695.05-.092.199-.815.022-1.163.072-3.815.498-2.56 3.51 1.163 3.51 1.61 0 1.347 3.91 4.864 2.05 1.085-.569 4.984 1.176 5.835-1.537.546-1.71 1.525.384 4.376-5.633 1.893-3.98 8.75-7.149 12.153-4.756 1.17.818 2.56-5.996 5.516-4.287.482.277.489-7.534 7.835-3.675 1.709.897 1.638 3.39 4.375.513 1.588-1.673 3.078 1.053 4.652-.598 1.198-1.26 4.495 1.267 2.432-3.077-1.475-3.105 1.709-3.56.971-5.12-.468-.983 3.8.833 2.432-2.05-.801-1.688-2.397-.328-4.375-1.019-5.715-2.008-7.36 6.003-9.729 1.019-1.191-2.507-.942 4.101-6.806 4.101h-.971c-1.142 0-1.496 1.168-3.893-.512-.532-.37-5.723-1.104-2.922-3.077 1.688-1.182-.978-5.504-3.403-6.145-1.397-.37-.468-2.4-.971-2.044-3.63 2.55-.532-2.542-3.403-1.025-.823.427.043-1.38.489-1.538 1.539-.54 1.453-2.556-2.432 1.538-2.39 2.514-.83-.257-.433-1.097.936-1.986 1.305-4.948-.056-3.517-.213.227 1.368 1.025 0 1.025-.156 0-1.461 3.083-1.461.513 0-2.122-.971 2.763-.971 1.025 0-.733-1.54.092 0-1.538.34-.356-1.944-4.052-1.944-1.538 0-2.684-1.956.029-1.46-1.018.035-.079-4.135-1.71-.972.512 2.482 1.738-2.56 2.115-.489 1.019 2.213-1.16-5.403-4.152-3.885-2.556.553.584.971-.328.971 1.025 0 .121-1.688-.17-2.255-.392-.12-.043-.184.057-.177-.122 0-.078.056-.142.078-.213.241-.947-.567-2.293-1.1-2.314-.197-.007-.361.163-.418.597-.014.114.128.42-.021.392-.135-.028-.035-.235-.1-.342C23.384.7 21.497.266 20.532.772z" fill="#1770D1"/><path d="M61.386 17.23c-2.512 0-4.569.634-6.17 1.902-1.332 1.06-2.106 2.394-2.324 4.006.099.041.383.123.726.123.43 0 .858-.43 1.287-.43h.858c.686 0 1.657-.182 2.057-.273.175-.323.434-.608.775-.856.713-.509 1.649-.763 2.806-.763 1.179 0 2.145.275 2.9.826.765.54 1.183 1.282 1.256 2.228h4.387c-.041-2.047-.832-3.682-2.372-4.908-1.54-1.236-3.602-1.854-6.186-1.854zM52.331 33.7h4.512c.104.913.584 1.656 1.442 2.227.868.561 1.928.842 3.179.842 1.24 0 2.248-.265 3.023-.795.785-.54 1.178-1.226 1.178-2.057 0-.727-.29-1.314-.868-1.76-.579-.447-1.545-.82-2.9-1.122l-2.914-.639c-1.27-.273-2.343-.599-3.22-1.104.744-.769 1.59-1.694 2.574-1.723 1.284-.037 2.702.943 3.431 1.293 0 0 .64.337.858.43.43.184.628.226.858.431 1.017.905 1.29 1.183 1.716.862 1.716-2.068 3.123-1.725 3.612-1.295 1.024 1.008 1.535 2.368 1.535 4.082 0 2.181-.816 3.916-2.45 5.204-1.632 1.277-3.84 1.916-6.62 1.916-2.697 0-4.847-.602-6.45-1.807-1.591-1.215-2.423-2.877-2.495-4.986z" fill="#fff"/></g><defs><clipPath id="clip0"><path fill="#fff" d="M0 0h163v56H0z"/></clipPath><filter id="filter0_d" x="6.295" y="0" width="50.037" height="57.108" filterUnits="userSpaceOnUse" color-interpolation-filters="sRGB"><feFlood flood-opacity="0" result="BackgroundImageFix"/><feColorMatrix in="SourceAlpha" values="0 0 0 0 0 0 0 0 0 0 0 0 0 0 0 0 0 0 127 0"/><feOffset dy="4"/><feGaussianBlur stdDeviation="2"/><feColorMatrix values="0 0 0 0 0.0798611 0 0 0 0 0.325833 0 0 0 0 0.958333 0 0 0 0.52 0"/><feBlend in2="BackgroundImageFix" result="effect1_dropShadow"/><feBlend in="SourceGraphic" in2="effect1_dropShadow" result="shape"/></filter></defs></svg>