<svg width="100" height="100" fill="none" xmlns="http://www.w3.org/2000/svg"><rect x="7" y="42" width="43" height="58" rx="7" fill="#1770D1" fill-opacity=".7"/><path d="M51.305 54.576a1.561 1.561 0 00-.562-.02 3.73 3.73 0 01-3.298-3.697 1.64 1.64 0 00-3.28 0 7.017 7.017 0 005.159 6.756v1.64a1.64 1.64 0 003.28 0v-1.54a7.004 7.004 0 00-1.435-13.86 3.724 3.724 0 113.724-3.725 1.64 1.64 0 003.281 0 7.017 7.017 0 00-5.57-6.857V31.78a1.64 1.64 0 00-3.28 0v1.594a7.005 7.005 0 001.845 13.76 3.722 3.722 0 01.136 7.442z" fill="#000"/><path d="M27.384 45.62c0 13.137 10.649 23.786 23.786 23.786 13.136 0 23.785-10.649 23.785-23.786 0-13.136-10.649-23.785-23.785-23.785-13.13.014-23.771 10.655-23.786 23.785zM51.17 25.116c11.325 0 20.505 9.18 20.505 20.506 0 11.325-9.18 20.505-20.505 20.505-11.326 0-20.506-9.18-20.506-20.506.013-11.319 9.186-20.492 20.506-20.505z" fill="#000"/><path d="M83.041 73.45l-12.849 6.071a10.466 10.466 0 00-8.922-5.505l-11.862-.326a12.528 12.528 0 01-5.39-1.392l-1.208-.626a21.29 21.29 0 00-19.72.02l.076-2.733a1.64 1.64 0 00-1.595-1.686l-13.007-.358A1.64 1.64 0 006.88 68.51l-.786 28.543A1.64 1.64 0 007.69 98.74l13.007.358h.045a1.64 1.64 0 001.64-1.596l.038-1.366 3.379-1.809a5.797 5.797 0 014.326-.473l20.178 5.663c.035.01.07.019.107.027a21.878 21.878 0 0013.577-1.538c.07-.032.138-.07.203-.112L93.447 78.97a1.641 1.641 0 00.538-2.185A8.286 8.286 0 0083.04 73.45zM9.42 95.504l.695-25.264 9.727.267-.695 25.266-9.727-.269zm53.09-.429a18.597 18.597 0 01-11.374 1.27l-20.124-5.65a9.07 9.07 0 00-6.761.74l-1.727.925.462-16.798a18.03 18.03 0 0118.317-.977l1.207.626a15.843 15.843 0 006.81 1.758l11.862.326a7.194 7.194 0 016.838 5.733l-17.67-.487a1.641 1.641 0 00-.09 3.28l19.5.536h.045a1.64 1.64 0 001.638-1.595 10.4 10.4 0 00-.158-2.129l13.179-6.227a5.012 5.012 0 015.706.775L62.51 95.075zm-9.7-77.852V1.64a1.64 1.64 0 00-3.28 0v15.583a1.64 1.64 0 003.28 0zm12.302 0V9.842a1.64 1.64 0 00-3.28 0v7.381a1.64 1.64 0 103.28 0zm-24.604 0V9.842a1.64 1.64 0 00-3.28 0v7.381a1.64 1.64 0 103.28 0z" fill="#000"/></svg>