<svg width="100" height="100" fill="none" xmlns="http://www.w3.org/2000/svg"><rect x="1.923" y="20.192" width="46.154" height="79.808" rx="7" fill="#1770D1" fill-opacity=".7"/><path d="M98.077 43.207h-3.485l-5.194 2.733c-.585-.322-1.193-.596-1.849-.76l-6.533-1.635v-.743a10.89 10.89 0 004.654-8.9v-2.711c0-6.025-4.721-11.067-10.523-11.242-.295-.008-.585.003-.876.017L75.965 16l-8.213-8.21-4.84 3.151a26.233 26.233 0 00-5.806-2.408L55.91 2.885H44.09l-1.195 5.65a26.204 26.204 0 00-5.805 2.408l-4.841-3.151-8.206 8.205 1.665 3.97c-.063-.004-.124-.015-.187-.017a10.776 10.776 0 00-7.893 3.06 10.756 10.756 0 00-3.298 7.79v3.102a10.89 10.89 0 004.652 8.899v.744l-4.261 1.065-7.725-4.505H1.923v32.136l15.257 5.085h2.972l.37-1.3 4.678 2.808a4.829 4.829 0 004.656 4.678 4.828 4.828 0 004.652 4.653 4.828 4.828 0 004.653 4.653c.093 2.589 2.213 4.67 4.823 4.67.97 0 1.92-.302 2.719-.841l1.373 1.213a4.722 4.722 0 003.121 1.178h.287c2.58 0 4.68-2.086 4.713-4.658a4.717 4.717 0 004.653-4.653 4.717 4.717 0 004.652-4.657c2.578-.06 4.66-2.166 4.66-4.759 0-.156-.009-.31-.024-.465l27.939-13.968v-22.67zM82.568 31.191v2.711a7.784 7.784 0 01-3.882 6.71l-.775.45.006 4.907 7.748 1.935-17.055 8.977v-4.178a7.716 7.716 0 00-2.22-5.404l5.322-1.33v-4.912l-.774-.447a7.776 7.776 0 01-3.879-6.708V30.8a7.69 7.69 0 012.356-5.566c1.518-1.472 3.533-2.265 5.639-2.184 4.143.125 7.514 3.777 7.514 8.141zm-30.23 24.47l-7.02-2.243a19.152 19.152 0 00-9.938-.453l-.889.197v-.459a4.649 4.649 0 013.524-4.515l8.883-2.22v-4.91l-.774-.448a7.776 7.776 0 01-3.879-6.708V30.8a7.69 7.69 0 012.356-5.566c1.519-1.472 3.546-2.265 5.639-2.184 4.143.125 7.514 3.777 7.514 8.141v2.711a7.784 7.784 0 01-3.882 6.71l-.775.45.006 4.907 8.882 2.22a4.65 4.65 0 013.523 4.514v5.811l-.383.202h-.95L54.64 55.99c-.75-.212-1.525-.3-2.302-.33zm-17.5-29.565c2.913-5.643 8.775-9.254 15.162-9.254 6.326 0 12.163 3.563 15.097 9.13a10.785 10.785 0 00-1.14 4.828v3.102a10.89 10.89 0 004.653 8.899v.744l-6.203 1.553-6.205-1.553v-.743a10.891 10.891 0 004.654-8.9v-2.711c0-6.025-4.72-11.067-10.523-11.242a10.775 10.775 0 00-7.892 3.06 10.767 10.767 0 00-3.297 7.791v3.102a10.89 10.89 0 004.652 8.899v.744l-6.203 1.553-6.205-1.553v-.743a10.891 10.891 0 004.654-8.9v-2.711c0-1.825-.44-3.558-1.203-5.095zm-7.132-9.38l4.955-4.954 4.36 2.838.835-.512a23.139 23.139 0 016.716-2.785l.954-.229 1.079-5.088h6.791l1.076 5.087.954.228a23.164 23.164 0 016.716 2.786l.834.512 4.361-2.838 4.949 4.95-1.76 4.118a10.838 10.838 0 00-3.273 2.177c-.063.062-.118.128-.18.192C63.419 17.39 56.96 13.741 50 13.741c-7.01 0-13.488 3.683-17.133 9.55a10.937 10.937 0 00-3.42-2.425l-1.741-4.15zM22.084 45.97v-4.912l-.774-.447a7.776 7.776 0 01-3.878-6.708V30.8a7.69 7.69 0 012.355-5.566c1.519-1.472 3.538-2.265 5.639-2.184 4.143.125 7.514 3.777 7.514 8.141v2.711a7.784 7.784 0 01-3.881 6.71l-.776.45.006 4.907 5.321 1.33a7.716 7.716 0 00-2.22 5.404v1.149l-4.838 1.075.126-.439.059-2.866-8.18-4.772 3.527-.881zm-17.06-2.762h1.131l11.154 6.506-5.628 22.51-6.656-2.219V43.207zm12.659 31.018l-3.053-1.017 5.468-21.868 3.537 2.063v.443l-5.822 20.379h-.13zm10.605 4.464c0-.457.184-.905.509-1.23l2.726-2.725a1.74 1.74 0 012.46 2.46l-2.727 2.725a1.74 1.74 0 01-2.968-1.23zm4.652 4.653c0-.457.185-.906.51-1.23l2.725-2.726a1.74 1.74 0 012.46 2.46l-2.726 2.726a1.74 1.74 0 01-2.969-1.23zm4.653 4.653c0-.458.185-.906.509-1.23l2.726-2.726a1.74 1.74 0 012.46 2.46l-2.727 2.725a1.74 1.74 0 01-2.969-1.23zm6.391 6.39a1.74 1.74 0 01-1.23-2.968l2.726-2.726a1.74 1.74 0 012.46 2.46l-2.726 2.726a1.75 1.75 0 01-1.23.509zm7.5 1.552h-.287a1.61 1.61 0 01-1.069-.405l-1.16-1.023 1.165-1.165c.416-.416.738-.91.977-1.441l1.41 1.174a1.62 1.62 0 01-1.036 2.86zM65.392 81.98h-.268c-.39 0-.77-.138-1.067-.388l-8.41-7.008-1.987 2.384 8.167 6.804a1.618 1.618 0 01-1.038 2.86h-.338c-.377 0-.745-.133-1.035-.375l-8.423-7.02-1.988 2.385 8.167 6.805c.37.305.582.758.582 1.24a1.62 1.62 0 01-1.617 1.618 2.561 2.561 0 01-1.632-.59l-3.462-2.886a4.824 4.824 0 00-4.164-2.71 4.828 4.828 0 00-4.652-4.653 4.828 4.828 0 00-4.653-4.652c-.091-2.59-2.211-4.67-4.822-4.67a4.873 4.873 0 00-3.422 1.417l-2.726 2.727c-.163.162-.298.347-.435.53l-4.764-2.858 4.176-14.617 10.47-2.328a15.976 15.976 0 018.32.377l2.285.73-7.745 3.873a5.17 5.17 0 00-2.869 4.647v.306a5.202 5.202 0 005.195 5.196 5.18 5.18 0 002.673-.742l5.775-3.463c1.16-.695 2.717-.542 3.719.359L66.507 79.07a1.669 1.669 0 01-1.115 2.91v-.001zm29.583-18.02L68.847 77.026a4.32 4.32 0 00-.266-.26L55.479 64.975a6.246 6.246 0 00-7.392-.715l-5.776 3.465a2.095 2.095 0 01-3.167-1.796v-.307a2.08 2.08 0 011.157-1.872l8.65-4.326a6.74 6.74 0 014.834-.448l9.746 2.784 2.36.059L94.976 46.51v17.45z" fill="#000"/></svg>